<svg width="47" height="47" viewBox="0 0 47 47" fill="none" xmlns="http://www.w3.org/2000/svg">
<g filter="url(#filter0_di_202_453)">
<path d="M4.98401 24.7325C4.98401 22.3353 6.92726 20.3921 9.32438 20.3921H30.755C33.1521 20.3921 35.0954 22.3353 35.0954 24.7325V41.0993H4.98401V24.7325Z" fill="url(#paint0_linear_202_453)"/>
<path d="M5.05183 24.7325C5.05183 22.3728 6.96472 20.4599 9.32438 20.4599H30.755C33.1146 20.4599 35.0275 22.3728 35.0275 24.7325V41.0315H5.05183V24.7325Z" stroke="white" stroke-opacity="0.5" stroke-width="0.135637"/>
</g>
<g filter="url(#filter1_di_202_453)">
<path fill-rule="evenodd" clip-rule="evenodd" d="M13.9023 10.0906C12.7723 11.2207 12.7723 13.0528 13.9023 14.1828L16.8905 17.171C18.0205 18.301 19.8526 18.301 20.9826 17.171L23.796 14.3576C24.442 13.7116 24.5956 12.7596 24.2567 11.9681L24.5513 10.6372L24.5471 10.633L25.1396 10.3944L27.1985 11.2385L30.4999 13.389L32.3762 15.2652L34.2879 17.1769L36.4738 20.5137L37.2299 22.165L36.7321 22.946L40.9095 27.1234L43.9031 22.5721L44.1028 21.8767L43.6357 21.2817L37.2291 14.2357L35.1758 12.1824L33.4412 10.4477L26.1473 3.7933L25.5524 3.32622L24.857 3.52598L20.3696 6.45565L20.3877 6.4737L19.0754 6.80407C18.2899 6.4816 17.3536 6.63934 16.7156 7.2773L13.9023 10.0906ZM30.3287 26.517C29.1987 27.6471 29.1987 29.4792 30.3287 30.6092L33.3169 33.5974C34.4469 34.7274 36.279 34.7274 37.409 33.5974L40.2223 30.784C40.8886 30.1177 41.0311 29.1259 40.6497 28.3205L40.9137 27.1278L36.7502 22.9643L35.5722 23.2608C34.7728 22.8989 33.7991 23.0466 33.142 23.7037L30.3287 26.517Z" fill="url(#paint1_linear_202_453)"/>
<path d="M24.2567 11.9681L24.0712 11.9271L24.058 11.9867L24.0821 12.0429L24.2567 11.9681ZM24.5513 10.6372L24.7368 10.6782L24.7593 10.5765L24.6856 10.5028L24.5513 10.6372ZM24.5471 10.633L24.4762 10.4568L24.2095 10.5641L24.4128 10.7674L24.5471 10.633ZM25.1396 10.3944L25.2117 10.2186L25.1403 10.1894L25.0687 10.2182L25.1396 10.3944ZM27.1985 11.2385L27.3022 11.0793L27.2872 11.0695L27.2706 11.0627L27.1985 11.2385ZM30.4999 13.389L30.6343 13.2546L30.6202 13.2406L30.6036 13.2298L30.4999 13.389ZM34.2879 17.1769L34.4468 17.0728L34.4361 17.0564L34.4223 17.0426L34.2879 17.1769ZM36.4738 20.5137L36.6465 20.4346L36.6406 20.4216L36.6327 20.4096L36.4738 20.5137ZM37.2299 22.165L37.3901 22.2671L37.4457 22.1799L37.4026 22.0859L37.2299 22.165ZM36.7321 22.946L36.5718 22.8438L36.4899 22.9725L36.5977 23.0803L36.7321 22.946ZM40.9095 27.1234L40.7751 27.2577L40.94 27.4226L41.0682 27.2278L40.9095 27.1234ZM43.9031 22.5721L44.0618 22.6765L44.0777 22.6523L44.0857 22.6245L43.9031 22.5721ZM44.1028 21.8767L44.2854 21.9291L44.3123 21.8358L44.2523 21.7594L44.1028 21.8767ZM43.6357 21.2817L43.7856 21.1641L43.7763 21.1539L43.6357 21.2817ZM37.2291 14.2357L37.3699 14.1077L37.3635 14.1014L37.2291 14.2357ZM33.4412 10.4477L33.5756 10.3132L33.5692 10.3074L33.4412 10.4477ZM26.1473 3.7933L26.2757 3.65256L26.2647 3.64385L26.1473 3.7933ZM25.5524 3.32622L25.6697 3.17677L25.5933 3.11678L25.4999 3.1436L25.5524 3.32622ZM24.857 3.52598L24.8045 3.34337L24.777 3.35126L24.7531 3.36689L24.857 3.52598ZM20.3696 6.45565L20.2658 6.29656L20.0698 6.42451L20.2353 6.59L20.3696 6.45565ZM20.3877 6.4737L20.4341 6.65795L20.7589 6.57618L20.522 6.33935L20.3877 6.4737ZM19.0754 6.80407L19.0032 6.97984L19.0611 7.0036L19.1218 6.98832L19.0754 6.80407ZM30.3287 26.517L30.463 26.6514L30.3287 26.517ZM40.6497 28.3205L40.4642 28.2794L40.4502 28.343L40.478 28.4018L40.6497 28.3205ZM40.9137 27.1278L41.0992 27.1688L41.1217 27.0671L41.048 26.9934L40.9137 27.1278ZM36.7502 22.9643L36.8846 22.8299L36.8083 22.7537L36.7038 22.78L36.7502 22.9643ZM35.5722 23.2608L35.4938 23.4339L35.5543 23.4613L35.6186 23.4451L35.5722 23.2608ZM33.142 23.7037L33.0077 23.5693L33.142 23.7037ZM14.0366 14.0484C12.9808 12.9926 12.9808 11.2808 14.0366 10.225L13.7679 9.9563C12.5637 11.1605 12.5637 13.1129 13.7679 14.3171L14.0366 14.0484ZM17.0248 17.0366L14.0366 14.0484L13.7679 14.3171L16.7561 17.3053L17.0248 17.0366ZM20.8483 17.0366C19.7924 18.0924 18.0806 18.0924 17.0248 17.0366L16.7561 17.3053C17.9603 18.5095 19.9127 18.5095 21.117 17.3053L20.8483 17.0366ZM23.6616 14.2233L20.8483 17.0366L21.117 17.3053L23.9303 14.492L23.6616 14.2233ZM24.0821 12.0429C24.3914 12.7655 24.2508 13.634 23.6616 14.2233L23.9303 14.492C24.6331 13.7892 24.7997 12.7538 24.4314 11.8934L24.0821 12.0429ZM24.3657 10.5961L24.0712 11.9271L24.4422 12.0092L24.7368 10.6782L24.3657 10.5961ZM24.4128 10.7674L24.4169 10.7715L24.6856 10.5028L24.6815 10.4987L24.4128 10.7674ZM25.0687 10.2182L24.4762 10.4568L24.6181 10.8093L25.2106 10.5707L25.0687 10.2182ZM27.2706 11.0627L25.2117 10.2186L25.0676 10.5702L27.1265 11.4143L27.2706 11.0627ZM30.6036 13.2298L27.3022 11.0793L27.0948 11.3977L30.3962 13.5482L30.6036 13.2298ZM32.5106 15.1309L30.6343 13.2546L30.3656 13.5233L32.2419 15.3996L32.5106 15.1309ZM34.4223 17.0426L32.5106 15.1309L32.2419 15.3996L34.1536 17.3113L34.4223 17.0426ZM36.6327 20.4096L34.4468 17.0728L34.129 17.281L36.3148 20.6178L36.6327 20.4096ZM37.4026 22.0859L36.6465 20.4346L36.301 20.5928L37.0571 22.2441L37.4026 22.0859ZM36.8923 23.0481L37.3901 22.2671L37.0696 22.0628L36.5718 22.8438L36.8923 23.0481ZM41.0438 26.989L36.8664 22.8116L36.5977 23.0803L40.7751 27.2577L41.0438 26.989ZM43.7443 22.4677L40.7507 27.0189L41.0682 27.2278L44.0618 22.6765L43.7443 22.4677ZM43.9202 21.8242L43.7204 22.5196L44.0857 22.6245L44.2854 21.9291L43.9202 21.8242ZM43.4863 21.399L43.9534 21.994L44.2523 21.7594L43.7852 21.1644L43.4863 21.399ZM37.0886 14.3635L43.4952 21.4095L43.7763 21.1539L37.3697 14.1079L37.0886 14.3635ZM35.0415 12.3168L37.0948 14.3701L37.3635 14.1014L35.3102 12.0481L35.0415 12.3168ZM33.3068 10.5821L35.0415 12.3168L35.3102 12.0481L33.5755 10.3134L33.3068 10.5821ZM26.0193 3.93366L33.3131 10.5881L33.5692 10.3074L26.2754 3.65294L26.0193 3.93366ZM25.435 3.47566L26.03 3.94275L26.2647 3.64385L25.6697 3.17677L25.435 3.47566ZM24.9094 3.7086L25.6048 3.50883L25.4999 3.1436L24.8045 3.34337L24.9094 3.7086ZM20.4735 6.61475L24.9608 3.68508L24.7531 3.36689L20.2658 6.29656L20.4735 6.61475ZM20.522 6.33935L20.504 6.3213L20.2353 6.59L20.2533 6.60805L20.522 6.33935ZM19.1218 6.98832L20.4341 6.65795L20.3413 6.28945L19.029 6.61982L19.1218 6.98832ZM16.85 7.41165C17.4319 6.82976 18.2861 6.68545 19.0032 6.97984L19.1476 6.62831C18.2937 6.27776 17.2753 6.44893 16.5813 7.14295L16.85 7.41165ZM14.0366 10.225L16.85 7.41165L16.5813 7.14295L13.7679 9.9563L14.0366 10.225ZM30.463 30.4748C29.4072 29.419 29.4072 27.7072 30.463 26.6514L30.1943 26.3827C28.9901 27.5869 28.9901 29.5393 30.1943 30.7435L30.463 30.4748ZM33.4512 33.463L30.463 30.4748L30.1943 30.7435L33.1825 33.7317L33.4512 33.463ZM37.2746 33.463C36.2188 34.5188 34.507 34.5188 33.4512 33.463L33.1825 33.7317C34.3867 34.9359 36.3391 34.9359 37.5433 33.7317L37.2746 33.463ZM40.088 30.6497L37.2746 33.463L37.5433 33.7317L40.3567 30.9184L40.088 30.6497ZM40.478 28.4018C40.8261 29.137 40.6958 30.0419 40.088 30.6497L40.3567 30.9184C41.0815 30.1935 41.2361 29.1149 40.8215 28.2392L40.478 28.4018ZM40.7282 27.0867L40.4642 28.2794L40.8352 28.3615L41.0992 27.1688L40.7282 27.0867ZM36.6159 23.0986L40.7793 27.2621L41.048 26.9934L36.8846 22.8299L36.6159 23.0986ZM35.6186 23.4451L36.7966 23.1485L36.7038 22.78L35.5258 23.0766L35.6186 23.4451ZM33.2764 23.838C33.8758 23.2387 34.7642 23.1036 35.4938 23.4339L35.6506 23.0878C34.7815 22.6943 33.7225 22.8545 33.0077 23.5693L33.2764 23.838ZM30.463 26.6514L33.2764 23.838L33.0077 23.5693L30.1943 26.3827L30.463 26.6514Z" fill="#BB6FEA"/>
</g>
<g filter="url(#filter2_bdi_202_453)">
<rect x="2" y="27.1738" width="36.1698" height="18.0849" rx="4.34037" fill="white" fill-opacity="0.4" shape-rendering="crispEdges"/>
<rect x="2.13564" y="27.3095" width="35.8985" height="17.8136" rx="4.20474" stroke="white" stroke-opacity="0.2" stroke-width="0.271273" shape-rendering="crispEdges"/>
</g>
<defs>
<filter id="filter0_di_202_453" x="3.0851" y="19.7591" width="33.9092" height="24.5049" filterUnits="userSpaceOnUse" color-interpolation-filters="sRGB">
<feFlood flood-opacity="0" result="BackgroundImageFix"/>
<feColorMatrix in="SourceAlpha" type="matrix" values="0 0 0 0 0 0 0 0 0 0 0 0 0 0 0 0 0 0 127 0" result="hardAlpha"/>
<feOffset dy="1.26594"/>
<feGaussianBlur stdDeviation="0.949457"/>
<feComposite in2="hardAlpha" operator="out"/>
<feColorMatrix type="matrix" values="0 0 0 0 0.883333 0 0 0 0 0.965 0 0 0 0 1 0 0 0 1 0"/>
<feBlend mode="normal" in2="BackgroundImageFix" result="effect1_dropShadow_202_453"/>
<feBlend mode="normal" in="SourceGraphic" in2="effect1_dropShadow_202_453" result="shape"/>
<feColorMatrix in="SourceAlpha" type="matrix" values="0 0 0 0 0 0 0 0 0 0 0 0 0 0 0 0 0 0 127 0" result="hardAlpha"/>
<feOffset dy="0.271273"/>
<feGaussianBlur stdDeviation="0.180849"/>
<feComposite in2="hardAlpha" operator="arithmetic" k2="-1" k3="1"/>
<feColorMatrix type="matrix" values="0 0 0 0 1 0 0 0 0 1 0 0 0 0 1 0 0 0 1 0"/>
<feBlend mode="normal" in2="shape" result="effect2_innerShadow_202_453"/>
</filter>
<filter id="filter1_di_202_453" x="11.0447" y="2.1767" width="35.0875" height="35.1581" filterUnits="userSpaceOnUse" color-interpolation-filters="sRGB">
<feFlood flood-opacity="0" result="BackgroundImageFix"/>
<feColorMatrix in="SourceAlpha" type="matrix" values="0 0 0 0 0 0 0 0 0 0 0 0 0 0 0 0 0 0 127 0" result="hardAlpha"/>
<feOffset dy="0.88"/>
<feGaussianBlur stdDeviation="0.91"/>
<feComposite in2="hardAlpha" operator="out"/>
<feColorMatrix type="matrix" values="0 0 0 0 0.588235 0 0 0 0 0.145098 0 0 0 0 0.866667 0 0 0 0.12 0"/>
<feBlend mode="normal" in2="BackgroundImageFix" result="effect1_dropShadow_202_453"/>
<feBlend mode="normal" in="SourceGraphic" in2="effect1_dropShadow_202_453" result="shape"/>
<feColorMatrix in="SourceAlpha" type="matrix" values="0 0 0 0 0 0 0 0 0 0 0 0 0 0 0 0 0 0 127 0" result="hardAlpha"/>
<feOffset dy="0.6"/>
<feGaussianBlur stdDeviation="1.05"/>
<feComposite in2="hardAlpha" operator="arithmetic" k2="-1" k3="1"/>
<feColorMatrix type="matrix" values="0 0 0 0 1 0 0 0 0 1 0 0 0 0 1 0 0 0 0.25 0"/>
<feBlend mode="normal" in2="shape" result="effect2_innerShadow_202_453"/>
</filter>
<filter id="filter2_bdi_202_453" x="-0.531885" y="24.6419" width="41.2336" height="23.1487" filterUnits="userSpaceOnUse" color-interpolation-filters="sRGB">
<feFlood flood-opacity="0" result="BackgroundImageFix"/>
<feGaussianBlur in="BackgroundImageFix" stdDeviation="1.26594"/>
<feComposite in2="SourceAlpha" operator="in" result="effect1_backgroundBlur_202_453"/>
<feColorMatrix in="SourceAlpha" type="matrix" values="0 0 0 0 0 0 0 0 0 0 0 0 0 0 0 0 0 0 127 0" result="hardAlpha"/>
<feOffset dy="-0.452122"/>
<feGaussianBlur stdDeviation="0.768608"/>
<feComposite in2="hardAlpha" operator="out"/>
<feColorMatrix type="matrix" values="0 0 0 0 0 0 0 0 0 0 0 0 0 0 0 0 0 0 0.02 0"/>
<feBlend mode="normal" in2="effect1_backgroundBlur_202_453" result="effect2_dropShadow_202_453"/>
<feBlend mode="normal" in="SourceGraphic" in2="effect2_dropShadow_202_453" result="shape"/>
<feColorMatrix in="SourceAlpha" type="matrix" values="0 0 0 0 0 0 0 0 0 0 0 0 0 0 0 0 0 0 127 0" result="hardAlpha"/>
<feOffset dy="0.180849"/>
<feGaussianBlur stdDeviation="0.632971"/>
<feComposite in2="hardAlpha" operator="arithmetic" k2="-1" k3="1"/>
<feColorMatrix type="matrix" values="0 0 0 0 0 0 0 0 0 0 0 0 0 0 0 0 0 0 0.25 0"/>
<feBlend mode="normal" in2="shape" result="effect3_innerShadow_202_453"/>
</filter>
<linearGradient id="paint0_linear_202_453" x1="35.0954" y1="30.7457" x2="4.98401" y2="30.7457" gradientUnits="userSpaceOnUse">
<stop stop-color="#D7EEFF"/>
<stop offset="0.496658" stop-color="#5CA2D6"/>
<stop offset="0.945017" stop-color="#E0F2FF"/>
</linearGradient>
<linearGradient id="paint1_linear_202_453" x1="13.1877" y1="12.1485" x2="46.2688" y2="12.2607" gradientUnits="userSpaceOnUse">
<stop stop-color="#CB76FF"/>
<stop offset="0.666658" stop-color="#9421DC"/>
</linearGradient>
</defs>
</svg>
