<svg width="24" height="25" viewBox="0 0 24 25" fill="none" xmlns="http://www.w3.org/2000/svg">
<g clip-path="url(#clip0_202_485)">
<path d="M22.2283 0.499512H1.77167C1.30179 0.499512 0.851161 0.686169 0.518909 1.01842C0.186657 1.35067 0 1.8013 0 2.27118V22.7278C0 23.1977 0.186657 23.6484 0.518909 23.9806C0.851161 24.3129 1.30179 24.4995 1.77167 24.4995H22.2283C22.6982 24.4995 23.1488 24.3129 23.4811 23.9806C23.8133 23.6484 24 23.1977 24 22.7278V2.27118C24 1.8013 23.8133 1.35067 23.4811 1.01842C23.1488 0.686169 22.6982 0.499512 22.2283 0.499512ZM7.15333 20.9445H3.545V9.48285H7.15333V20.9445ZM5.34667 7.89451C4.93736 7.89221 4.53792 7.76871 4.19873 7.5396C3.85955 7.31049 3.59584 6.98604 3.44088 6.6072C3.28591 6.22836 3.24665 5.8121 3.32803 5.41097C3.40941 5.00983 3.6078 4.64179 3.89816 4.35329C4.18851 4.0648 4.55782 3.86878 4.95947 3.78997C5.36112 3.71117 5.77711 3.75311 6.15495 3.9105C6.53279 4.06789 6.85554 4.33368 7.08247 4.67432C7.30939 5.01497 7.43032 5.4152 7.43 5.82451C7.43386 6.09855 7.38251 6.37055 7.27901 6.62432C7.17551 6.87808 7.02198 7.10841 6.82757 7.30158C6.63316 7.49475 6.40185 7.64679 6.14742 7.74866C5.893 7.85053 5.62067 7.90013 5.34667 7.89451ZM20.4533 20.9545H16.8467V14.6928C16.8467 12.8462 16.0617 12.2762 15.0483 12.2762C13.9783 12.2762 12.9283 13.0828 12.9283 14.7395V20.9545H9.32V9.49118H12.79V11.0795H12.8367C13.185 10.3745 14.405 9.16951 16.2667 9.16951C18.28 9.16951 20.455 10.3645 20.455 13.8645L20.4533 20.9545Z" fill="#585489"/>
</g>
<defs>
<clipPath id="clip0_202_485">
<rect width="24" height="24" fill="white" transform="translate(0 0.499512)"/>
</clipPath>
</defs>
</svg>
