<svg width="24" height="25" viewBox="0 0 24 25" fill="none" xmlns="http://www.w3.org/2000/svg">
<g clip-path="url(#clip0_202_481)">
<path d="M12 2.66045C15.2063 2.66045 15.5859 2.67451 16.8469 2.73076C18.0188 2.78232 18.6516 2.9792 19.0734 3.14326C19.6313 3.35889 20.0344 3.62139 20.4516 4.03857C20.8734 4.46045 21.1313 4.85889 21.3469 5.4167C21.5109 5.83857 21.7078 6.47607 21.7594 7.64326C21.8156 8.90889 21.8297 9.28857 21.8297 12.4901C21.8297 15.6964 21.8156 16.0761 21.7594 17.337C21.7078 18.5089 21.5109 19.1417 21.3469 19.5636C21.1313 20.1214 20.8687 20.5245 20.4516 20.9417C20.0297 21.3636 19.6313 21.6214 19.0734 21.837C18.6516 22.0011 18.0141 22.1979 16.8469 22.2495C15.5813 22.3058 15.2016 22.3198 12 22.3198C8.79375 22.3198 8.41406 22.3058 7.15313 22.2495C5.98125 22.1979 5.34844 22.0011 4.92656 21.837C4.36875 21.6214 3.96563 21.3589 3.54844 20.9417C3.12656 20.5198 2.86875 20.1214 2.65313 19.5636C2.48906 19.1417 2.29219 18.5042 2.24063 17.337C2.18438 16.0714 2.17031 15.6917 2.17031 12.4901C2.17031 9.28389 2.18438 8.9042 2.24063 7.64326C2.29219 6.47139 2.48906 5.83857 2.65313 5.4167C2.86875 4.85889 3.13125 4.45576 3.54844 4.03857C3.97031 3.6167 4.36875 3.35889 4.92656 3.14326C5.34844 2.9792 5.98594 2.78232 7.15313 2.73076C8.41406 2.67451 8.79375 2.66045 12 2.66045ZM12 0.499512C8.74219 0.499512 8.33438 0.513574 7.05469 0.569824C5.77969 0.626074 4.90313 0.832324 4.14375 1.12764C3.35156 1.43701 2.68125 1.84482 2.01563 2.51514C1.34531 3.18076 0.9375 3.85107 0.628125 4.63857C0.332812 5.40264 0.126563 6.27451 0.0703125 7.54951C0.0140625 8.83389 0 9.2417 0 12.4995C0 15.7573 0.0140625 16.1651 0.0703125 17.4448C0.126563 18.7198 0.332812 19.5964 0.628125 20.3558C0.9375 21.1479 1.34531 21.8183 2.01563 22.4839C2.68125 23.1495 3.35156 23.562 4.13906 23.8667C4.90313 24.162 5.775 24.3683 7.05 24.4245C8.32969 24.4808 8.7375 24.4948 11.9953 24.4948C15.2531 24.4948 15.6609 24.4808 16.9406 24.4245C18.2156 24.3683 19.0922 24.162 19.8516 23.8667C20.6391 23.562 21.3094 23.1495 21.975 22.4839C22.6406 21.8183 23.0531 21.148 23.3578 20.3605C23.6531 19.5964 23.8594 18.7245 23.9156 17.4495C23.9719 16.1698 23.9859 15.762 23.9859 12.5042C23.9859 9.24639 23.9719 8.83857 23.9156 7.55889C23.8594 6.28389 23.6531 5.40732 23.3578 4.64795C23.0625 3.85107 22.6547 3.18076 21.9844 2.51514C21.3188 1.84951 20.6484 1.43701 19.8609 1.13232C19.0969 0.837012 18.225 0.630762 16.95 0.574512C15.6656 0.513574 15.2578 0.499512 12 0.499512Z" fill="#585489"/>
<path d="M12 6.33545C8.59688 6.33545 5.83594 9.09639 5.83594 12.4995C5.83594 15.9026 8.59688 18.6636 12 18.6636C15.4031 18.6636 18.1641 15.9026 18.1641 12.4995C18.1641 9.09639 15.4031 6.33545 12 6.33545ZM12 16.4979C9.79219 16.4979 8.00156 14.7073 8.00156 12.4995C8.00156 10.2917 9.79219 8.50107 12 8.50107C14.2078 8.50107 15.9984 10.2917 15.9984 12.4995C15.9984 14.7073 14.2078 16.4979 12 16.4979Z" fill="#585489"/>
<path d="M19.8469 6.0919C19.8469 6.88877 19.2 7.53096 18.4078 7.53096C17.6109 7.53096 16.9688 6.88409 16.9688 6.0919C16.9688 5.29502 17.6156 4.65283 18.4078 4.65283C19.2 4.65283 19.8469 5.29971 19.8469 6.0919Z" fill="#585489"/>
</g>
<defs>
<clipPath id="clip0_202_481">
<rect width="24" height="24" fill="white" transform="translate(0 0.499512)"/>
</clipPath>
</defs>
</svg>
