<svg width="24" height="25" viewBox="0 0 24 25" fill="none" xmlns="http://www.w3.org/2000/svg">
<g clip-path="url(#clip0_202_478)">
<path d="M24 12.4995C24 5.87215 18.6274 0.499512 12 0.499512C5.37264 0.499512 0 5.87215 0 12.4995C0 18.127 3.87456 22.8493 9.10128 24.1462V16.1667H6.62688V12.4995H9.10128V10.9194C9.10128 6.83503 10.9498 4.94191 14.9597 4.94191C15.72 4.94191 17.0318 5.09119 17.5685 5.23999V8.56399C17.2853 8.53423 16.7933 8.51935 16.1822 8.51935C14.2147 8.51935 13.4544 9.26479 13.4544 11.2026V12.4995H17.3741L16.7006 16.1667H13.4544V24.4117C19.3963 23.6941 24.0005 18.6349 24.0005 12.4995H24Z" fill="#585489"/>
<path d="M16.7001 16.1667L17.3735 12.4995H13.4539V11.2025C13.4539 9.26477 14.2142 8.51933 16.1817 8.51933C16.7927 8.51933 17.2847 8.53421 17.5679 8.56397V5.23997C17.0313 5.09069 15.7195 4.94189 14.9591 4.94189C10.9492 4.94189 9.10074 6.83501 9.10074 10.9193V12.4995H6.62634V16.1667H9.10074V24.1462C10.0291 24.3766 11.0001 24.4995 11.9995 24.4995C12.4915 24.4995 12.9767 24.4693 13.4534 24.4117V16.1667H16.6996H16.7001Z" fill="white"/>
</g>
<defs>
<clipPath id="clip0_202_478">
<rect width="24" height="24" fill="white" transform="translate(0 0.499512)"/>
</clipPath>
</defs>
</svg>
