<svg width="24" height="25" viewBox="0 0 24 25" fill="none" xmlns="http://www.w3.org/2000/svg">
    <g clip-path="url(#nhiklqp2ra)">
        <path d="M24 12.5c0-6.628-5.373-12-12-12S0 5.872 0 12.5c0 5.627 3.875 10.35 9.101 11.646v-7.98H6.627V12.5H9.1v-1.58c0-4.084 1.849-5.977 5.859-5.977.76 0 2.072.15 2.608.298v3.324c-.283-.03-.775-.045-1.386-.045-1.967 0-2.728.746-2.728 2.684v1.296h3.92l-.673 3.668h-3.247v8.245C19.396 23.694 24 18.635 24 12.5z" fill="#585489"/>
        <path d="m16.7 16.167.674-3.668h-3.92v-1.296c0-1.938.76-2.684 2.728-2.684.61 0 1.103.015 1.386.045V5.24c-.537-.15-1.849-.298-2.609-.298-4.01 0-5.858 1.893-5.858 5.977v1.58H6.626v3.668h2.475v7.98a12.022 12.022 0 0 0 4.352.265v-8.245H16.7z" fill="#fff"/>
    </g>
    <defs>
        <clipPath id="nhiklqp2ra">
            <path fill="#fff" transform="translate(0 .5)" d="M0 0h24v24H0z"/>
        </clipPath>
    </defs>
</svg>
