<svg width="899" height="858" viewBox="0 0 899 858" fill="none" xmlns="http://www.w3.org/2000/svg">
    <g filter="url(#093lnuphma)">
        <path fill-rule="evenodd" clip-rule="evenodd" d="M663 3c-78.977 0-143 64.023-143 143 0 26.68 7.307 51.654 20.028 73.029-116.247 25.982-206.334 121.274-224.623 240.238C285.211 442.53 250.468 433 213.5 433 97.244 433 3 527.244 3 643.5S97.244 854 213.5 854c88.722 0 164.624-54.889 195.6-132.561C460.788 767.8 529.101 796 604 796c161.267 0 292-130.733 292-292 0-105.586-56.041-198.082-140-249.369 30.606-26.226 50-65.164 50-108.631C806 67.023 741.977 3 663 3zm81.949 245.209C774.855 224.2 794 187.336 794 146c0-72.35-58.651-131-131-131-72.349 0-131 58.65-131 131 0 25.96 7.551 50.157 20.577 70.513A293.785 293.785 0 0 1 604 212c51.114 0 99.16 13.133 140.949 36.209zM560.34 227.384A282.047 282.047 0 0 1 604 224c46.981 0 91.26 11.571 130.141 32.018C713.656 269.292 689.228 277 663 277c-41.595 0-78.663-19.386-102.66-49.616zm-13.237 2.401C573.085 265.662 615.317 289 663 289c30.891 0 59.494-9.795 82.873-26.448C828.531 311.226 884 401.135 884 504c0 154.64-125.36 280-280 280-73.563 0-140.5-28.368-190.468-74.762C420.325 688.554 424 666.456 424 643.5c0-74.642-38.85-140.21-97.431-177.586 16.024-117.83 105.35-212.354 220.534-236.129zM312 504c0-10.773.583-21.409 1.72-31.879C284.305 454.882 250.057 445 213.5 445 103.871 445 15 533.871 15 643.5S103.871 842 213.5 842c85.336 0 158.095-53.849 186.15-129.421C345.561 659.58 312 585.709 312 504zm12 0c0-8.323.363-16.56 1.074-24.698C377.544 515.024 412 575.238 412 643.5c0 19.573-2.833 38.484-8.111 56.346C354.467 649.354 324 580.235 324 504z" fill="url(#4qitsntmnb)"/>
    </g>
    <defs>
        <linearGradient id="4qitsntmnb" x1="53.634" y1="27.314" x2="512.23" y2="1006.01" gradientUnits="userSpaceOnUse">
            <stop stop-color="#CB76FF"/>
            <stop offset=".667" stop-color="#9421DC"/>
        </linearGradient>
        <filter id="093lnuphma" x=".19" y=".63" width="898.62" height="856.62" filterUnits="userSpaceOnUse" color-interpolation-filters="sRGB">
            <feFlood flood-opacity="0" result="BackgroundImageFix"/>
            <feColorMatrix in="SourceAlpha" values="0 0 0 0 0 0 0 0 0 0 0 0 0 0 0 0 0 0 127 0" result="hardAlpha"/>
            <feOffset dy=".44"/>
            <feGaussianBlur stdDeviation="1.405"/>
            <feComposite in2="hardAlpha" operator="out"/>
            <feColorMatrix values="0 0 0 0 0.580392 0 0 0 0 0.129412 0 0 0 0 0.862745 0 0 0 0.44 0"/>
            <feBlend in2="BackgroundImageFix" result="effect1_dropShadow_110_1419"/>
            <feBlend in="SourceGraphic" in2="effect1_dropShadow_110_1419" result="shape"/>
            <feColorMatrix in="SourceAlpha" values="0 0 0 0 0 0 0 0 0 0 0 0 0 0 0 0 0 0 127 0" result="hardAlpha"/>
            <feOffset dy=".44"/>
            <feGaussianBlur stdDeviation=".76"/>
            <feComposite in2="hardAlpha" operator="arithmetic" k2="-1" k3="1"/>
            <feColorMatrix values="0 0 0 0 1 0 0 0 0 1 0 0 0 0 1 0 0 0 0.25 0"/>
            <feBlend in2="shape" result="effect2_innerShadow_110_1419"/>
        </filter>
    </defs>
</svg>
